<svg width="26" height="26" viewBox="0 0 26 26" fill="none" xmlns="http://www.w3.org/2000/svg">
<path d="M23.4331 8.8632C23.2734 8.98116 20.47 10.4809 20.47 13.8172C20.47 17.6759 24.0363 19.0408 24.1428 19.0744C24.1251 19.1586 23.575 20.9448 22.262 22.7646C21.091 24.3655 19.8666 25.9662 18.0036 25.9662C16.1406 25.9662 15.6615 24.9383 13.5145 24.9383C11.4208 24.9383 10.6756 25.9999 8.97218 25.9999C7.2688 25.9999 6.07995 24.517 4.71381 22.6972C3.13464 20.5572 1.85715 17.2377 1.85715 14.0867C1.85715 9.03158 5.31717 6.35229 8.72376 6.35229C10.5337 6.35229 12.0417 7.4813 13.1773 7.4813C14.2596 7.4813 15.9453 6.2849 18.0034 6.2849C18.7843 6.28507 21.5878 6.35261 23.4331 8.8632Z" fill="black"/>
<path d="M17.0278 4.14522C17.8794 3.18474 18.4828 1.85358 18.4828 0.522415C18.4828 0.337073 18.4651 0.151732 18.4295 0C17.0455 0.0505773 15.3954 0.876293 14.4017 1.97154C13.6211 2.81406 12.8935 4.14522 12.8935 5.49335C12.8935 5.69549 12.9291 5.8978 12.9467 5.96519C13.0354 5.98199 13.1775 5.99896 13.3194 5.99896C14.5615 5.9988 16.1228 5.20685 17.0278 4.14522Z" fill="black"/>
</svg>
