<svg width="24" height="24" viewBox="0 0 24 24" fill="none" xmlns="http://www.w3.org/2000/svg">
<path d="M7.08001 9.72052L5.4 11.4005L10.8 16.8005L22.8 4.80052L21.125 3.12052L10.805 13.3805L7.08001 9.72052ZM21.6 12.0005C21.5914 14.0016 20.955 15.9495 19.7806 17.5696C18.6062 19.1898 16.9529 20.4006 15.0538 21.0313C13.1548 21.6619 11.1056 21.6807 9.1953 21.085C7.28497 20.4893 5.60977 19.3091 4.40581 17.7107C3.20185 16.1123 2.52986 14.1764 2.48454 12.1759C2.43923 10.1753 3.02289 8.21101 4.15324 6.55978C5.2836 4.90855 6.90365 3.65369 8.78505 2.97208C10.6664 2.29046 12.7143 2.21647 14.64 2.76052L16.5 0.90052C15.0785 0.292076 13.5462 -0.0144 12 0.00051969C9.62663 0.00051969 7.30655 0.704307 5.33316 2.02288C3.35977 3.34146 1.8217 5.21561 0.913451 7.40832C0.00519925 9.60103 -0.232441 12.0138 0.230582 14.3416C0.693605 16.6694 1.83649 18.8076 3.51472 20.4858C5.19295 22.164 7.33115 23.3069 9.65892 23.7699C11.9867 24.233 14.3995 23.9953 16.5922 23.0871C18.7849 22.1788 20.6591 20.6408 21.9776 18.6674C23.2962 16.694 24 14.3739 24 12.0005H21.6Z" fill="#007489"/>
</svg>
