<svg width="22" height="27" viewBox="0 0 22 27" fill="none" xmlns="http://www.w3.org/2000/svg">
<path d="M13.973 2.84397L12.801 3.98997L13.078 5.60897C13.0886 5.67139 13.0855 5.73538 13.0688 5.79646C13.0521 5.85755 13.0223 5.91426 12.9815 5.96263C12.9406 6.01101 12.8897 6.04988 12.8323 6.07654C12.7748 6.1032 12.7123 6.117 12.649 6.11697C12.502 6.11697 12.578 6.13697 10.999 5.30297L9.55196 6.06697C9.48017 6.10465 9.39928 6.12151 9.31841 6.11565C9.23754 6.1098 9.15992 6.08146 9.0943 6.03383C9.02869 5.9862 8.97768 5.92119 8.94706 5.84611C8.91643 5.77104 8.90739 5.68891 8.92096 5.60897L9.19796 3.98997L8.02596 2.84397C7.96813 2.78728 7.92726 2.71557 7.90797 2.63692C7.88869 2.55826 7.89174 2.47579 7.91679 2.39877C7.94183 2.32176 7.98788 2.25326 8.04975 2.201C8.11162 2.14874 8.18685 2.11479 8.26696 2.10297L9.88496 1.86697L10.61 0.39497C10.6459 0.322226 10.7015 0.260984 10.7704 0.218163C10.8393 0.175342 10.9188 0.152649 11 0.152649C11.0811 0.152649 11.1606 0.175342 11.2295 0.218163C11.2985 0.260984 11.354 0.322226 11.39 0.39497L12.114 1.86697L13.732 2.10297C13.8121 2.11479 13.8873 2.14874 13.9492 2.201C14.011 2.25326 14.0571 2.32176 14.0821 2.39877C14.1072 2.47579 14.1102 2.55826 14.091 2.63692C14.0717 2.71557 14.0308 2.78728 13.973 2.84397ZM6.46396 5.06797L6.41296 4.76797C6.61296 4.56797 6.83896 4.41397 6.73996 4.10997C6.64096 3.80597 6.36396 3.80997 6.08896 3.76997L5.95496 3.49797C5.91902 3.42523 5.86345 3.36398 5.79454 3.32116C5.72562 3.27834 5.6461 3.25565 5.56496 3.25565C5.48383 3.25565 5.40431 3.27834 5.33539 3.32116C5.26647 3.36398 5.2109 3.42523 5.17496 3.49797L5.03696 3.77197C4.75896 3.81197 4.48396 3.80797 4.38596 4.11197C4.28796 4.41597 4.51396 4.57497 4.71296 4.76997L4.66196 5.06997C4.64839 5.14991 4.65743 5.23204 4.68806 5.30711C4.71869 5.38219 4.76968 5.4472 4.8353 5.49483C4.90092 5.54246 4.97854 5.5708 5.05941 5.57665C5.14027 5.58251 5.22117 5.56565 5.29296 5.52797L5.56196 5.38697C5.83696 5.53197 5.89696 5.57797 6.03296 5.57797C6.09665 5.57834 6.15964 5.56472 6.21748 5.53807C6.27533 5.51142 6.32662 5.4724 6.36773 5.42376C6.40883 5.37511 6.43876 5.31804 6.45539 5.25656C6.47202 5.19508 6.47494 5.1307 6.46396 5.06797ZM2.66396 7.24097L2.61296 6.94097C2.81296 6.74097 3.03896 6.58697 2.93996 6.28297C2.84096 5.97897 2.56396 5.98297 2.28896 5.94297L2.15496 5.67097C2.11903 5.59823 2.06345 5.53698 1.99454 5.49416C1.92562 5.45134 1.8461 5.42865 1.76496 5.42865C1.68382 5.42865 1.60431 5.45134 1.53539 5.49416C1.46647 5.53698 1.4109 5.59823 1.37496 5.67097L1.24096 5.94297C0.962963 5.98297 0.687962 5.97897 0.589962 6.28297C0.491962 6.58697 0.717962 6.74597 0.916962 6.94097L0.865963 7.24097C0.852391 7.32091 0.861427 7.40304 0.892056 7.47811C0.922684 7.55319 0.973686 7.6182 1.0393 7.66583C1.10492 7.71346 1.18254 7.7418 1.26341 7.74765C1.34428 7.75351 1.42517 7.73665 1.49696 7.69897L1.76596 7.55797C2.04096 7.70297 2.10096 7.74897 2.23696 7.74897C2.30028 7.749 2.36284 7.7352 2.42027 7.70854C2.47771 7.68188 2.52862 7.64301 2.56948 7.59463C2.61033 7.54626 2.64013 7.48955 2.6568 7.42846C2.67346 7.36738 2.67659 7.30339 2.66596 7.24097H2.66396ZM17.337 5.06797L17.286 4.76797C17.486 4.56797 17.712 4.41397 17.613 4.10997C17.514 3.80597 17.237 3.80997 16.962 3.76997C16.838 3.51797 16.762 3.25497 16.438 3.25497C16.114 3.25497 16.038 3.51997 15.914 3.76997L15.614 3.81397C15.5338 3.82579 15.4586 3.85974 15.3968 3.912C15.3349 3.96426 15.2888 4.03276 15.2638 4.10977C15.2387 4.18679 15.2357 4.26926 15.255 4.34792C15.2743 4.42657 15.3151 4.49828 15.373 4.55497L15.59 4.76697C15.543 5.04397 15.453 5.30397 15.712 5.49097C15.971 5.67797 16.192 5.51197 16.439 5.38297C16.714 5.52797 16.774 5.57397 16.91 5.57397C16.9732 5.57385 17.0356 5.55994 17.093 5.53322C17.1503 5.5065 17.2011 5.46761 17.2418 5.41925C17.2825 5.37089 17.3123 5.31423 17.3289 5.25322C17.3455 5.19221 17.3486 5.12831 17.338 5.06597L17.337 5.06797ZM21.137 7.24197L21.086 6.94197C21.286 6.74197 21.512 6.58797 21.413 6.28397C21.314 5.97997 21.037 5.98397 20.762 5.94397C20.638 5.69197 20.562 5.42897 20.238 5.42897C19.914 5.42897 19.838 5.69397 19.714 5.94397L19.414 5.98797C19.3338 5.99979 19.2586 6.03374 19.1968 6.086C19.1349 6.13826 19.0888 6.20676 19.0638 6.28377C19.0387 6.36079 19.0357 6.44326 19.055 6.52192C19.0743 6.60057 19.1151 6.67228 19.173 6.72897L19.39 6.94097C19.343 7.21797 19.253 7.47797 19.512 7.66497C19.771 7.85197 19.992 7.68597 20.239 7.55697C20.514 7.70197 20.574 7.74797 20.71 7.74797C20.7729 7.74766 20.835 7.73369 20.8921 7.70702C20.9491 7.68035 20.9996 7.64163 21.0402 7.59352C21.0808 7.54541 21.1105 7.48906 21.1272 7.42837C21.1439 7.36767 21.1472 7.30408 21.137 7.24197ZM4.59696 25.785C4.59871 25.8431 4.58873 25.9011 4.56764 25.9553C4.54655 26.0095 4.51477 26.059 4.47419 26.1007C4.43361 26.1424 4.38505 26.1755 4.33142 26.198C4.27778 26.2206 4.22015 26.2321 4.16196 26.232H1.87196C1.41145 26.2309 0.970151 26.0472 0.64489 25.7212C0.319629 25.3952 0.136962 24.9535 0.136963 24.493V15.8C0.136963 15.3388 0.320179 14.8964 0.646305 14.5703C0.972431 14.2442 1.41475 14.061 1.87596 14.061H4.15796C4.27333 14.061 4.38398 14.1068 4.46555 14.1884C4.54713 14.27 4.59296 14.3806 4.59296 14.496C4.58796 22.682 4.57396 25.035 4.59696 25.785ZM3.12096 18.408C3.12379 18.3492 3.11464 18.2904 3.09407 18.2352C3.07351 18.18 3.04196 18.1296 3.00134 18.087C2.96071 18.0444 2.91186 18.0104 2.85773 17.9873C2.80361 17.9641 2.74534 17.9521 2.68646 17.9521C2.62758 17.9521 2.56931 17.9641 2.51519 17.9873C2.46107 18.0104 2.41221 18.0444 2.37159 18.087C2.33096 18.1296 2.29941 18.18 2.27885 18.2352C2.25829 18.2904 2.24914 18.3492 2.25196 18.408V20.252C2.25732 20.3636 2.30544 20.4689 2.38633 20.546C2.46723 20.6231 2.5747 20.6661 2.68646 20.6661C2.79822 20.6661 2.90569 20.6231 2.98659 20.546C3.06749 20.4689 3.11561 20.3636 3.12096 20.252V18.408ZM21.866 15.8V24.493C21.866 24.9542 21.6827 25.3965 21.3566 25.7226C21.0305 26.0488 20.5882 26.232 20.127 26.232H17.837C17.7788 26.2321 17.7211 26.2206 17.6675 26.198C17.6139 26.1755 17.5653 26.1424 17.5247 26.1007C17.4842 26.059 17.4524 26.0095 17.4313 25.9553C17.4102 25.9011 17.4002 25.8431 17.402 25.785C17.425 25.036 17.411 22.685 17.41 14.497C17.41 14.3816 17.4558 14.271 17.5374 14.1894C17.619 14.1078 17.7296 14.062 17.845 14.062H20.127C20.588 14.062 21.0302 14.245 21.3563 14.571C21.6824 14.8969 21.8657 15.3389 21.866 15.8ZM19.747 18.408C19.7498 18.3492 19.7406 18.2904 19.7201 18.2352C19.6995 18.18 19.668 18.1296 19.6273 18.087C19.5867 18.0444 19.5379 18.0104 19.4837 17.9873C19.4296 17.9641 19.3713 17.9521 19.3125 17.9521C19.2536 17.9521 19.1953 17.9641 19.1412 17.9873C19.0871 18.0104 19.0382 18.0444 18.9976 18.087C18.957 18.1296 18.9254 18.18 18.9049 18.2352C18.8843 18.2904 18.8751 18.3492 18.878 18.408V20.252C18.8833 20.3636 18.9314 20.4689 19.0123 20.546C19.0932 20.6231 19.2007 20.6661 19.3125 20.6661C19.4242 20.6661 19.5317 20.6231 19.6126 20.546C19.6935 20.4689 19.7416 20.3636 19.747 20.252V18.408ZM9.91296 26.232H12.086C12.2013 26.232 12.312 26.1861 12.3936 26.1046C12.4751 26.023 12.521 25.9123 12.521 25.797V21.722C12.521 21.6066 12.4751 21.496 12.3936 21.4144C12.312 21.3328 12.2013 21.287 12.086 21.287H9.91296C9.7976 21.287 9.68695 21.3328 9.60537 21.4144C9.52379 21.496 9.47796 21.6066 9.47796 21.722V25.797C9.47796 25.9123 9.52379 26.023 9.60537 26.1046C9.68695 26.1861 9.7976 26.232 9.91296 26.232ZM16.537 9.60597V25.797C16.537 25.9123 16.4911 26.023 16.4096 26.1046C16.328 26.1861 16.2173 26.232 16.102 26.232H13.825C13.7096 26.232 13.599 26.1861 13.5174 26.1046C13.4358 26.023 13.39 25.9123 13.39 25.797V20.852C13.39 20.7366 13.3441 20.626 13.2626 20.5444C13.181 20.4628 13.0703 20.417 12.955 20.417H9.04396C8.98684 20.417 8.93027 20.4282 8.87749 20.4501C8.82472 20.4719 8.77676 20.504 8.73637 20.5444C8.69598 20.5848 8.66394 20.6327 8.64207 20.6855C8.62021 20.7383 8.60896 20.7948 8.60896 20.852V25.796C8.60896 25.9113 8.56313 26.022 8.48156 26.1036C8.39998 26.1851 8.28933 26.231 8.17396 26.231H5.89196C5.77659 26.231 5.66595 26.1851 5.58437 26.1036C5.50279 26.022 5.45696 25.9113 5.45696 25.796V9.60597C5.45696 9.14476 5.64018 8.70244 5.9663 8.37631C6.29243 8.05019 6.73475 7.86697 7.19596 7.86697H14.803C15.2633 7.86829 15.7043 8.05209 16.0294 8.37808C16.3544 8.70406 16.537 9.14563 16.537 9.60597ZM13.168 16.887C13.168 16.7723 13.1227 16.6622 13.042 16.5808C12.9613 16.4993 12.8516 16.453 12.737 16.452H9.26096C9.20215 16.4491 9.14338 16.4583 9.0882 16.4789C9.03303 16.4994 8.9826 16.531 8.93998 16.5716C8.89736 16.6122 8.86343 16.6611 8.84025 16.7152C8.81707 16.7693 8.80511 16.8276 8.80511 16.8865C8.80511 16.9454 8.81707 17.0036 8.84025 17.0577C8.86343 17.1119 8.89736 17.1607 8.93998 17.2013C8.9826 17.242 9.03303 17.2735 9.0882 17.2941C9.14338 17.3146 9.20215 17.3238 9.26096 17.321H12.737C12.7942 17.3211 12.8508 17.3099 12.9037 17.2881C12.9566 17.2663 13.0047 17.2343 13.0452 17.1939C13.0857 17.1535 13.1178 17.1055 13.1398 17.0527C13.1617 16.9998 13.173 16.9432 13.173 16.886L13.168 16.887ZM13.929 12.703C13.929 12.5876 13.8831 12.477 13.8016 12.3954C13.72 12.3138 13.6093 12.268 13.494 12.268H8.49396C8.38233 12.2733 8.27704 12.3214 8.19994 12.4023C8.12283 12.4832 8.07981 12.5907 8.07981 12.7025C8.07981 12.8142 8.12283 12.9217 8.19994 13.0026C8.27704 13.0835 8.38233 13.1316 8.49396 13.137H13.494C13.5517 13.138 13.609 13.1276 13.6627 13.1063C13.7163 13.085 13.7652 13.0532 13.8064 13.0128C13.8476 12.9724 13.8804 12.9242 13.9028 12.871C13.9252 12.8178 13.9368 12.7607 13.937 12.703H13.929Z" fill="white"/>
</svg>
