<svg width="24" height="24" viewBox="0 0 24 24" fill="none" xmlns="http://www.w3.org/2000/svg">
<path d="M10.5519 6.20304C10.5433 5.91444 10.6212 5.62986 10.7755 5.3858C10.9298 5.14175 11.1534 4.94935 11.4178 4.83329C11.6822 4.71722 11.9752 4.68279 12.2593 4.7344C12.5434 4.78601 12.8055 4.92131 13.0122 5.12295C13.2189 5.32458 13.3606 5.58336 13.4191 5.86609C13.4777 6.14881 13.4505 6.44259 13.341 6.70974C13.2314 6.97689 13.0446 7.20522 12.8044 7.36545C12.5642 7.52569 12.2816 7.61051 11.9929 7.60904C11.8054 7.61344 11.6189 7.58033 11.4444 7.51167C11.2699 7.44301 11.1108 7.34017 10.9766 7.2092C10.8424 7.07823 10.7357 6.92176 10.6627 6.74898C10.5898 6.57619 10.5521 6.39058 10.5519 6.20304ZM10.6519 8.71304H13.3379V18.845H10.6499L10.6519 8.71304Z" fill="#E07026"/>
<path d="M12 1.61707C14.4016 1.61801 16.7285 2.45158 18.5844 3.97576C20.4403 5.49994 21.7103 7.62044 22.1781 9.976C22.6459 12.3316 22.2825 14.7764 21.1499 16.8941C20.0172 19.0118 18.1853 20.6713 15.9664 21.5898C13.7474 22.5083 11.2786 22.6291 8.98062 21.9315C6.6826 21.2339 4.69753 19.7612 3.3636 17.7641C2.02967 15.7671 1.4294 13.3694 1.66506 10.9794C1.90072 8.58944 2.95773 6.35511 4.65601 4.65707C5.61829 3.68989 6.76286 2.9232 8.02347 2.40138C9.28407 1.87956 10.6357 1.61298 12 1.61707ZM12 0.0020752C9.62663 0.0020752 7.30655 0.705863 5.33316 2.02444C3.35977 3.34302 1.8217 5.21716 0.913451 7.40987C0.00519925 9.60259 -0.232441 12.0154 0.230582 14.3432C0.693605 16.6709 1.83649 18.8091 3.51472 20.4874C5.19295 22.1656 7.33115 23.3085 9.65892 23.7715C11.9867 24.2345 14.3995 23.9969 16.5922 23.0886C18.7849 22.1804 20.6591 20.6423 21.9776 18.6689C23.2962 16.6955 24 14.3755 24 12.0021C24 8.81948 22.7357 5.76723 20.4853 3.51679C18.2348 1.26636 15.1826 0.0020752 12 0.0020752Z" fill="#E07026"/>
</svg>
