<svg width="21" height="24" viewBox="0 0 21 24" fill="none" xmlns="http://www.w3.org/2000/svg">
<path d="M20.417 16.8H11.084V7.2H13.977C13.745 3.758 11.621 0 10.5 0C9.379 0 7.255 3.758 7.024 7.2H9.917V16.8H0.584001C0.506867 16.8001 0.430541 16.8157 0.359581 16.8459C0.288622 16.8762 0.224485 16.9204 0.171001 16.976C0.0610109 17.0897 -0.000330487 17.2418 1.33927e-06 17.4V18.6C-0.000330487 18.7582 0.0610109 18.9103 0.171001 19.024C0.224485 19.0796 0.288622 19.1238 0.359581 19.1541C0.430541 19.1843 0.506867 19.1999 0.584001 19.2H3.337L2.351 23.255C2.32945 23.3432 2.32777 23.435 2.34611 23.5239C2.36444 23.6128 2.40232 23.6965 2.457 23.769C2.51062 23.8404 2.58006 23.8985 2.65987 23.9385C2.73968 23.9786 2.82769 23.9997 2.917 24H4.084C4.21571 23.9987 4.34315 23.9531 4.44581 23.8705C4.54847 23.788 4.62039 23.6733 4.65 23.545L5.705 19.2H15.295L16.351 23.545C16.3806 23.6733 16.4525 23.788 16.5552 23.8705C16.6579 23.9531 16.7853 23.9987 16.917 24H18.084C18.1733 23.9997 18.2614 23.9787 18.3412 23.9386C18.421 23.8986 18.4904 23.8405 18.544 23.769C18.5987 23.6964 18.6366 23.6125 18.6549 23.5234C18.6732 23.4344 18.6716 23.3423 18.65 23.254L17.668 19.2H20.421C20.4981 19.1999 20.5745 19.1843 20.6454 19.1541C20.7164 19.1238 20.7805 19.0796 20.834 19.024C20.944 18.9103 21.0053 18.7582 21.005 18.6V17.4C21.0053 17.2418 20.944 17.0897 20.834 16.976C20.7805 16.9204 20.7164 16.8762 20.6454 16.8459C20.5745 16.8157 20.4981 16.8001 20.421 16.8H20.417Z" fill="white"/>
<path d="M19.237 7.053C19.3302 7.05304 19.4221 7.03091 19.505 6.98847C19.588 6.94602 19.6597 6.88446 19.7142 6.80887C19.7687 6.73327 19.8044 6.64581 19.8185 6.55368C19.8325 6.46156 19.8245 6.36741 19.795 6.279C19.2334 4.7275 18.2716 3.352 17.0072 2.29184C15.7428 1.23167 14.2207 0.52452 12.595 0.242004C14.0341 2.24139 14.8986 4.59643 15.095 7.052L19.237 7.053Z" fill="white"/>
<path d="M1.764 7.05298H5.902C6.0984 4.5974 6.96295 2.24237 8.402 0.242981C6.77632 0.525496 5.25419 1.23265 3.9898 2.29281C2.7254 3.35297 1.76366 4.72847 1.202 6.27998C1.17231 6.36831 1.16408 6.46244 1.17799 6.55457C1.19189 6.64671 1.22754 6.73422 1.28197 6.80985C1.33639 6.88549 1.40805 6.94708 1.491 6.98953C1.57395 7.03198 1.66582 7.05407 1.759 7.05398L1.764 7.05298Z" fill="white"/>
<path d="M2.35899 11.539L2.94699 15.066C2.96975 15.2033 3.04057 15.3281 3.14681 15.418C3.25305 15.5079 3.38779 15.5572 3.52699 15.557H7.04999C7.18918 15.5572 7.32392 15.5079 7.43016 15.418C7.5364 15.3281 7.60722 15.2033 7.62999 15.066L8.21799 11.539C8.23192 11.4548 8.22736 11.3686 8.20463 11.2863C8.1819 11.2041 8.14154 11.1278 8.08635 11.0627C8.03116 10.9976 7.96247 10.9453 7.88505 10.9095C7.80762 10.8736 7.72332 10.855 7.63799 10.855H2.93799C2.85266 10.855 2.76835 10.8736 2.69093 10.9095C2.6135 10.9453 2.54481 10.9976 2.48962 11.0627C2.43444 11.1278 2.39408 11.2041 2.37135 11.2863C2.34861 11.3686 2.34506 11.4548 2.35899 11.539Z" fill="white"/>
<path d="M13.359 10.855C13.2737 10.855 13.1894 10.8736 13.1119 10.9095C13.0345 10.9453 12.9658 10.9976 12.9106 11.0627C12.8555 11.1278 12.8151 11.2041 12.7924 11.2863C12.7696 11.3686 12.7651 11.4548 12.779 11.539L13.367 15.066C13.3898 15.2033 13.4606 15.3281 13.5668 15.418C13.6731 15.5079 13.8078 15.5572 13.947 15.557H17.47C17.6092 15.5572 17.7439 15.5079 17.8502 15.418C17.9564 15.3281 18.0272 15.2033 18.05 15.066L18.638 11.539C18.6519 11.4548 18.6474 11.3686 18.6247 11.2863C18.6019 11.2041 18.5616 11.1278 18.5064 11.0627C18.4512 10.9976 18.3825 10.9453 18.3051 10.9095C18.2276 10.8736 18.1433 10.855 18.058 10.855H13.359Z" fill="white"/>
</svg>
