<svg width="80" height="80" viewBox="0 0 80 80" fill="none" xmlns="http://www.w3.org/2000/svg">
<path d="M80.001 40.001C80.001 47.9122 77.655 55.6458 73.2598 62.2238C68.8645 68.8018 62.6174 73.9286 55.3083 76.9562C47.9993 79.9837 39.9566 80.7758 32.1974 79.2324C24.4381 77.689 17.3108 73.8793 11.7167 68.2852C6.12262 62.6911 2.31299 55.5638 0.769583 47.8046C-0.773825 40.0453 0.0183079 32.0027 3.04581 24.6936C6.07332 17.3846 11.2002 11.1374 17.7782 6.74219C24.3562 2.34694 32.0897 0.000976563 40.001 0.000976562C50.6097 0.000976563 60.7838 4.21525 68.2853 11.7167C75.7867 19.2182 80.001 29.3923 80.001 40.001ZM35.374 61.18L65.051 31.503C65.535 31.0189 65.8069 30.3625 65.8069 29.678C65.8069 28.9935 65.535 28.337 65.051 27.853L61.401 24.203C60.917 23.719 60.2605 23.4471 59.576 23.4471C58.8915 23.4471 58.235 23.719 57.751 24.203L33.551 48.403L22.251 37.103C21.767 36.619 21.1105 36.3471 20.426 36.3471C19.7415 36.3471 19.085 36.619 18.601 37.103L14.951 40.753C14.467 41.237 14.1951 41.8935 14.1951 42.578C14.1951 43.2625 14.467 43.9189 14.951 44.403L31.724 61.18C32.208 61.664 32.8645 61.9359 33.549 61.9359C34.2335 61.9359 34.89 61.664 35.374 61.18Z" fill="#007489"/>
</svg>
