<svg width="24" height="16" viewBox="0 0 24 16" fill="none" xmlns="http://www.w3.org/2000/svg">
<path d="M23.833 4.78201C23.7974 4.69656 23.7383 4.62299 23.6625 4.56987C23.5868 4.51675 23.4974 4.48628 23.405 4.482H21.212C21.1195 4.48628 21.0302 4.51675 20.9544 4.56987C20.8787 4.62299 20.8195 4.69656 20.784 4.78201C20.7327 4.92884 20.691 5.07881 20.659 5.231L19.194 1.131C19.0769 0.801243 18.8608 0.515658 18.5754 0.31324C18.2899 0.110822 17.9489 0.00143139 17.599 0H6.399C6.04957 0.00204704 5.70926 0.111726 5.42439 0.314102C5.13953 0.516478 4.92395 0.801723 4.807 1.131L3.342 5.231C3.31001 5.07848 3.26826 4.92817 3.217 4.78101C3.18144 4.69556 3.12233 4.62199 3.04655 4.56887C2.97076 4.51575 2.88144 4.48528 2.789 4.481H0.598996C0.506551 4.48528 0.417227 4.51575 0.341446 4.56887C0.265664 4.62199 0.206549 4.69556 0.170996 4.78101C-0.0509764 5.32005 -0.0509764 5.92496 0.170996 6.464C0.206549 6.54945 0.265664 6.62301 0.341446 6.67613C0.417227 6.72925 0.506551 6.75972 0.598996 6.764H2.799L2.766 6.857C2.54094 6.93375 2.34561 7.07913 2.20749 7.27268C2.06936 7.46623 1.9954 7.69822 1.996 7.936V15.453C1.9952 15.5971 2.05161 15.7356 2.15285 15.8382C2.25409 15.9408 2.39189 15.9989 2.536 16H5.256C5.4001 15.9989 5.5379 15.9408 5.63914 15.8382C5.74038 15.7356 5.79679 15.5971 5.796 15.453V12.791H18.208V15.453C18.2072 15.5971 18.2636 15.7356 18.3649 15.8382C18.4661 15.9408 18.6039 15.9989 18.748 16H21.468C21.6121 15.9989 21.7499 15.9408 21.8511 15.8382C21.9524 15.7356 22.0088 15.5971 22.008 15.453V7.936C22.0086 7.69822 21.9346 7.46623 21.7965 7.27268C21.6584 7.07913 21.4631 6.93375 21.238 6.857L21.205 6.764H23.405C23.4974 6.75972 23.5868 6.72925 23.6625 6.67613C23.7383 6.62301 23.7974 6.54945 23.833 6.464C24.0547 5.92525 24.0547 5.32076 23.833 4.78201ZM6.605 2.013H17.393L19.099 6.798H4.899L6.605 2.013ZM6.905 10.169H4.63C4.39794 10.1612 4.17797 10.0636 4.01656 9.8967C3.85514 9.72979 3.76491 9.50669 3.76491 9.27451C3.76491 9.04232 3.85514 8.81921 4.01656 8.65231C4.17797 8.4854 4.39794 8.38776 4.63 8.38H6.906C7.13806 8.38776 7.35802 8.4854 7.51943 8.65231C7.68085 8.81921 7.77108 9.04232 7.77108 9.27451C7.77108 9.50669 7.68085 9.72979 7.51943 9.8967C7.35802 10.0636 7.13706 10.1612 6.905 10.169ZM19.369 10.169H17.094C16.8619 10.1612 16.642 10.0636 16.4806 9.8967C16.3191 9.72979 16.2289 9.50669 16.2289 9.27451C16.2289 9.04232 16.3191 8.81921 16.4806 8.65231C16.642 8.4854 16.8619 8.38776 17.094 8.38H19.369C19.6011 8.38776 19.821 8.4854 19.9824 8.65231C20.1438 8.81921 20.2341 9.04232 20.2341 9.27451C20.2341 9.50669 20.1438 9.72979 19.9824 9.8967C19.821 10.0636 19.6011 10.1612 19.369 10.169Z" fill="white"/>
</svg>
