<svg width="20" height="20" viewBox="0 0 20 20" fill="none" xmlns="http://www.w3.org/2000/svg">
<path d="M2.50002 2.5L17.5 17.5M8.82002 8.82248C8.50728 9.13499 8.3315 9.55894 8.33134 10.0011C8.33119 10.4432 8.50667 10.8672 8.81918 11.18C9.1317 11.4927 9.55564 11.6685 9.99776 11.6687C10.4399 11.6688 10.8639 11.4933 11.1767 11.1808M7.80252 4.47083C8.51704 4.26643 9.25685 4.16403 10 4.16667C13.3334 4.16667 16.1109 6.11083 18.3334 10C17.685 11.1342 16.99 12.1033 16.2475 12.9067M14.4642 14.4575C13.105 15.3742 11.6184 15.8333 10 15.8333C6.66669 15.8333 3.88919 13.8892 1.66669 10C2.80752 8.00416 4.09419 6.52083 5.52669 5.54917" stroke="#A0AEC0" stroke-width="1.5" stroke-linecap="round" stroke-linejoin="round"/>
</svg>
